<?xml version="1.0" encoding="UTF-8" standalone="no"?>
<!DOCTYPE svg PUBLIC "-//W3C//DTD SVG 1.1//EN" "http://www.w3.org/Graphics/SVG/1.1/DTD/svg11.dtd">
<!--Generated by Intaglio, www.PurgatoryDesign.com-->
<svg version="1.1" viewBox="0,0,576,734" width="576" height="734" xmlns="http://www.w3.org/2000/svg" xmlns:xlink="http://www.w3.org/1999/xlink" xmlns:intaglio="http://purgatorydesign.com/namespaces/intaglio" intaglio:grid="12,12,1,1,0.5,#9999bf,1,0,0,0" intaglio:guides="0.8,#f0f,0,0"><defs><pattern id="6080003898c0" width="32" height="32" patternUnits="userSpaceOnUse"><g><path fill="none" stroke="#000" stroke-linecap="square" d="M-4,-4 L36,36"/><path fill="none" stroke="#000" stroke-linecap="square" d="M0,-4 L36,32"/><path fill="none" stroke="#000" stroke-linecap="square" d="M4,-4 L36,28"/><path fill="none" stroke="#000" stroke-linecap="square" d="M8,-4 L36,24"/><path fill="none" stroke="#000" stroke-linecap="square" d="M12,-4 L36,20"/><path fill="none" stroke="#000" stroke-linecap="square" d="M16,-4 L36,16"/><path fill="none" stroke="#000" stroke-linecap="square" d="M20,-4 L36,12"/><path fill="none" stroke="#000" stroke-linecap="square" d="M24,-4 L36,8"/><path fill="none" stroke="#000" stroke-linecap="square" d="M-4,0 L32,36"/><path fill="none" stroke="#000" stroke-linecap="square" d="M-4,4 L28,36"/><path fill="none" stroke="#000" stroke-linecap="square" d="M-4,8 L24,36"/><path fill="none" stroke="#000" stroke-linecap="square" d="M-4,12 L20,36"/><path fill="none" stroke="#000" stroke-linecap="square" d="M-4,16 L16,36"/><path fill="none" stroke="#000" stroke-linecap="square" d="M-4,20 L12,36"/><path fill="none" stroke="#000" stroke-linecap="square" d="M-4,24 L8,36"/><path fill="none" stroke="#000" stroke-linecap="square" d="M28,-4 L36,4"/><path fill="none" stroke="#000" stroke-linecap="square" d="M-4,28 L4,36"/></g></pattern></defs><g><path fill="#fffffe" stroke="#000100" d="M126,82 C126,95.2548,120.627,106,114,106 C107.373,106,102,95.2548,102,82 C102,68.7452,107.373,58,114,58 C120.627,58,126,68.7452,126,82 Z"/><g><path fill="none" intaglio:arrow-end="1" stroke="#000100" d="M125,72 L125,74.5" intaglio:d="M125,72 L125,84"/><path fill="#000100" intaglio:omit="yes" d="M129,74 L125,84 L121,74"/></g></g><g><path fill="#fffffe" stroke="#000100" d="M210,84 C210,97.2548,204.627,108,198,108 C191.373,108,186,97.2548,186,84 C186,70.7452,191.373,60,198,60 C204.627,60,210,70.7452,210,84 Z"/><g><path fill="none" intaglio:arrow-end="1" stroke="#000100" d="M209,74 L209,76.5" intaglio:d="M209,74 L209,86"/><path fill="#000100" intaglio:omit="yes" d="M213,76 L209,86 L205,76"/></g></g><g><path fill="#fffffe" stroke="#000100" d="M389,84 C389,97.2548,383.627,108,377,108 C370.373,108,365,97.2548,365,84 C365,70.7452,370.373,60,377,60 C383.627,60,389,70.7452,389,84 Z"/><g><path fill="none" intaglio:arrow-end="1" stroke="#000100" d="M388,74 L388,76.5" intaglio:d="M388,74 L388,86"/><path fill="#000100" intaglio:omit="yes" d="M392,76 L388,86 L384,76"/></g></g><g><path fill="#fffffe" stroke="#000100" d="M475,84 C475,97.2548,469.627,108,463,108 C456.373,108,451,97.2548,451,84 C451,70.7452,456.373,60,463,60 C469.627,60,475,70.7452,475,84 Z"/><g><path fill="none" intaglio:arrow-end="1" stroke="#000100" d="M474,74 L474,76.5" intaglio:d="M474,74 L474,86"/><path fill="#000100" intaglio:omit="yes" d="M478,76 L474,86 L470,76"/></g></g><g><path fill="#fffffe" stroke="#000100" d="M40,84 C40,97.2548,34.6274,108,28,108 C21.3726,108,16,97.2548,16,84 C16,70.7452,21.3726,60,28,60 C34.6274,60,40,70.7452,40,84 Z"/><g><path fill="none" intaglio:arrow-end="1" stroke="#000100" d="M39,74 L39,76.5" intaglio:d="M39,74 L39,86"/><path fill="#000100" intaglio:omit="yes" d="M43,76 L39,86 L35,76"/></g></g><g><path fill="#fffffe" stroke="#000100" d="M372,120 C372,139.882,355.882,156,336,156 C316.118,156,300,139.882,300,120 C300,100.118,316.118,84,336,84 C355.882,84,372,100.118,372,120 Z"/><g><path fill="none" intaglio:arrow-start="1" stroke="#000100" d="M338.5,156 L341,156" intaglio:d="M329,156 L341,156"/><path fill="#000100" intaglio:omit="yes" d="M339,160 L329,156 L339,152"/></g></g><g><path fill="#fffffe" stroke="#000100" d="M276,120 C276,139.882,259.882,156,240,156 C220.118,156,204,139.882,204,120 C204,100.118,220.118,84,240,84 C259.882,84,276,100.118,276,120 Z"/><g><path fill="none" intaglio:arrow-start="1" stroke="#000100" d="M242.5,156 L245,156" intaglio:d="M233,156 L245,156"/><path fill="#000100" intaglio:omit="yes" d="M243,160 L233,156 L243,152"/></g></g><path fill="#fffffe" stroke="#000100" d="M540,120 C540,139.882,523.882,156,504,156 C484.118,156,468,139.882,468,120 C468,100.118,484.118,84,504,84 C523.882,84,540,100.118,540,120 Z"/><path fill="#fffffe" stroke="#000100" d="M456,120 C456,139.882,439.882,156,420,156 C400.118,156,384,139.882,384,120 C384,100.118,400.118,84,420,84 C439.882,84,456,100.118,456,120 Z"/><path fill="#fffffe" stroke="#000100" d="M192,120 C192,139.882,175.882,156,156,156 C136.118,156,120,139.882,120,120 C120,100.118,136.118,84,156,84 C175.882,84,192,100.118,192,120 Z"/><path fill="#fffffe" stroke="#000100" d="M108,120 C108,139.882,91.8823,156,72,156 C52.1177,156,36,139.882,36,120 C36,100.118,52.1177,84,72,84 C91.8823,84,108,100.118,108,120 Z"/><path fill="#fffffe" stroke="#000100" d="M48,118 C48,127.389,40.3888,135,31,135 C21.6112,135,14,127.389,14,118 C14,108.611,21.6112,101,31,101 C40.3888,101,48,108.611,48,118 Z"/><path fill="#fffffe" stroke="#000100" d="M130,118 C130,127.389,122.389,135,113,135 C103.611,135,96,127.389,96,118 C96,108.611,103.611,101,113,101 C122.389,101,130,108.611,130,118 Z"/><path fill="#fffffe" stroke="#000100" d="M214,118 C214,127.389,206.389,135,197,135 C187.611,135,180,127.389,180,118 C180,108.611,187.611,101,197,101 C206.389,101,214,108.611,214,118 Z"/><path fill="#fffffe" stroke="#000100" d="M394,118 C394,127.389,386.389,135,377,135 C367.611,135,360,127.389,360,118 C360,108.611,367.611,101,377,101 C386.389,101,394,108.611,394,118 Z"/><path fill="#fffffe" stroke="#000100" d="M478,118 C478,127.389,470.389,135,461,135 C451.611,135,444,127.389,444,118 C444,108.611,451.611,101,461,101 C470.389,101,478,108.611,478,118 Z"/><g><path fill="none" intaglio:arrow-end="1" stroke="#000100" d="M66,84 L68.5,84" intaglio:d="M66,84 L78,84"/><path fill="#000100" intaglio:omit="yes" d="M68,80 L78,84 L68,88"/></g><g><path fill="none" intaglio:arrow-end="1" stroke="#000100" d="M150,84 L152.5,84" intaglio:d="M150,84 L162,84"/><path fill="#000100" intaglio:omit="yes" d="M152,80 L162,84 L152,88"/></g><g><path fill="none" intaglio:arrow-end="1" stroke="#000100" d="M331,84 L333.5,84" intaglio:d="M331,84 L343,84"/><path fill="#000100" intaglio:omit="yes" d="M333,80 L343,84 L333,88"/></g><g><path fill="none" intaglio:arrow-end="1" stroke="#000100" d="M412,84 L414.5,84" intaglio:d="M412,84 L424,84"/><path fill="#000100" intaglio:omit="yes" d="M414,80 L424,84 L414,88"/></g><g><path fill="none" intaglio:arrow-end="1" stroke="#000100" d="M498,84 L500.5,84" intaglio:d="M498,84 L510,84"/><path fill="#000100" intaglio:omit="yes" d="M500,80 L510,84 L500,88"/></g><g><path fill="none" intaglio:arrow-start="1" stroke="#000100" d="M73.5,156 L76,156" intaglio:d="M64,156 L76,156"/><path fill="#000100" intaglio:omit="yes" d="M74,160 L64,156 L74,152"/></g><g><path fill="none" intaglio:arrow-start="1" stroke="#000100" d="M157.5,156 L160,156" intaglio:d="M148,156 L160,156"/><path fill="#000100" intaglio:omit="yes" d="M158,160 L148,156 L158,152"/></g><g><path fill="none" intaglio:arrow-start="1" stroke="#000100" d="M419.5,156 L422,156" intaglio:d="M410,156 L422,156"/><path fill="#000100" intaglio:omit="yes" d="M420,160 L410,156 L420,152"/></g><g><path fill="none" intaglio:arrow-start="1" stroke="#000100" d="M505.5,156 L508,156" intaglio:d="M496,156 L508,156"/><path fill="#000100" intaglio:omit="yes" d="M506,160 L496,156 L506,152"/></g><g><path fill="none" intaglio:arrow-end="1" stroke="#000100" d="M234,84 L236.5,84" intaglio:d="M234,84 L246,84"/><path fill="#000100" intaglio:omit="yes" d="M236,80 L246,84 L236,88"/></g><path fill="#fffffe" stroke="#fff" d="M246,72 L330,72 L330,170.5 L246,170.5 L246,72 Z"/><path fill="#fffffe" stroke="#fff" d="M509,72 L574,72 L574,170.5 L509,170.5 L509,72 Z"/><image xlink:href="18.pdf" width="29" height="4" transform="matrix(1,0,0,1,276,115)"/><image xlink:href="18.pdf" width="29" height="4" transform="matrix(1,0,0,1,516,115)"/><image xlink:href="22.pdf" width="10" height="16" transform="matrix(1,0,0,1,24,108)"/><image xlink:href="21.pdf" width="9" height="15" transform="matrix(1,0,0,1,108,108)"/><image xlink:href="26.pdf" width="10" height="15" transform="matrix(1,0,0,1,192,108)"/><image xlink:href="31.pdf" width="7" height="16" transform="matrix(1,0,0,1,372,108)"/><image xlink:href="36.pdf" width="33" height="13" transform="matrix(1,0,0,1,493,123)"/><g><path fill="#fffffe" intaglio:arrow-end="6" intaglio:stroke="#000100" d="M489,126 L477,126 L465,114"/><path fill="none" intaglio:omit="yes" stroke="#000100" d="M489,126 L477,126 L468.712,117.712"/><path fill="#000100" intaglio:omit="yes" d="M475.607,117.536 C472.071,116.357,468.536,115.179,465,114 C466.179,117.536,467.357,121.071,468.536,124.607 C468.653,122.367,468.771,120.128,468.889,117.889"/></g><g><image xlink:href="11.pdf" width="11" height="15" transform="matrix(1,0,0,1,64,60)"/><image xlink:href="37.pdf" width="12" height="14" transform="matrix(1,0,0,1,66,168)"/></g><g><image xlink:href="11.pdf" width="11" height="15" transform="matrix(1,0,0,1,149,60)"/><image xlink:href="37.pdf" width="12" height="14" transform="matrix(1,0,0,1,151,168)"/></g><g><image xlink:href="11.pdf" width="11" height="15" transform="matrix(1,0,0,1,231,60)"/><image xlink:href="37.pdf" width="12" height="14" transform="matrix(1,0,0,1,233,168)"/></g><g><image xlink:href="11.pdf" width="11" height="15" transform="matrix(1,0,0,1,327,60)"/><image xlink:href="37.pdf" width="12" height="14" transform="matrix(1,0,0,1,329,168)"/></g><g><image xlink:href="11.pdf" width="11" height="15" transform="matrix(1,0,0,1,411,60)"/><image xlink:href="37.pdf" width="12" height="14" transform="matrix(1,0,0,1,413,168)"/></g><g><image xlink:href="11.pdf" width="11" height="15" transform="matrix(1,0,0,1,497,60)"/><image xlink:href="37.pdf" width="12" height="14" transform="matrix(1,0,0,1,499,168)"/></g><g><path fill="none" intaglio:arrow-start="9" intaglio:arrow-end="1" stroke="#000100" d="M48,264 L554.5,264" intaglio:d="M48,264 L564,264"/><path fill="none" intaglio:omit="yes" stroke="#000100" d="M48,259 L48,269"/><path fill="#000100" intaglio:omit="yes" d="M554,260 L564,264 L554,268"/></g><path fill="#fffffe" stroke="#000100" d="M72,252 L108,252 L108,264 L72,264 L72,252 Z"/><path fill="#fffffe" stroke="#000100" d="M108,252 L144,252 L144,264 L108,264 L108,252 Z"/><path fill="#fffffe" stroke="#000100" d="M144,252 L336,252 L336,264 L144,264 L144,252 Z"/><g><path fill="none" intaglio:arrow-start="8" intaglio:arrow-end="8" stroke="#000100" d="M144,240 L336,240"/><path fill="none" intaglio:omit="yes" stroke="#000100" d="M144,244.5 L144,235.5 M152,244 L144,240.05 L144,239.95 L152,236"/><path fill="none" intaglio:omit="yes" stroke="#000100" d="M336,235.5 L336,244.5 M328,236 L336,239.95 L336,240.05 L328,244"/></g><image xlink:href="38.pdf" width="144" height="15" transform="matrix(1,0,0,1,168,216)"/><image xlink:href="41.pdf" width="12" height="12" transform="matrix(1,0,0,1,84,228)"/><image xlink:href="44.pdf" width="36" height="13" transform="matrix(1,0,0,1,108,269)"/><path fill="none" stroke="#000100" d="M336,252 L372,252 L372,264 L336,264 L336,252 Z"/><path fill="none" stroke="#000100" d="M372,252 L408,252 L408,264 L372,264 L372,252 Z"/><image xlink:href="50.pdf" width="26" height="13" transform="matrix(1,0,0,1,396,216)"/><pattern id="608000347ec0" xlink:href="#6080003898c0" patternTransform="matrix(1,0,0,1,0,0)"/><path fill="url(#608000347ec0)" stroke="#000100" d="M408,252 L444,252 L444,264 L408,264 L408,252 Z"/><path fill="none" stroke="#000100" d="M444,252 L480,252 L480,264 L444,264 L444,252 Z"/><image xlink:href="55.pdf" width="60" height="13" transform="matrix(1,0,0,1,396,276)"/><g><path fill="#fffffe" intaglio:arrow-end="7" stroke="#000100" d="M384,228 L360,228 L360,252"/><path fill="none" intaglio:omit="yes" stroke="#000100" d="M356,244 C357.333,246.667,358.667,249.333,360,252 C361.333,249.333,362.667,246.667,364,244"/></g><g><path fill="none" intaglio:arrow-end="7" stroke="#000100" d="M402,234 L389,252"/><path fill="none" intaglio:omit="yes" stroke="#000100" d="M396.927,247.857 L389,252 L390.441,243.173"/></g><g><path fill="#fffffe" intaglio:arrow-end="7" stroke="#000100" d="M432,228 L456,228 L456,252"/><path fill="none" intaglio:omit="yes" stroke="#000100" d="M452,244 C453.333,246.667,454.667,249.333,456,252 C457.333,249.333,458.667,246.667,460,244"/></g><g><g><path fill="none" intaglio:arrow-end="1" stroke="#000100" d="M52.5,359.8 L317,359.8" intaglio:d="M52.5,359.8 L326.5,359.8"/><path fill="#000100" intaglio:omit="yes" d="M316.5,355.8 L326.5,359.8 L316.5,363.8"/></g><path fill="none" stroke="#000100" d="M132,302.5 L132,371.8"/><path fill="none" stroke="#000100" d="M228,284 L228,371.8"/><path stroke="#000100" d="M136,359.8 C136,362.009,134.209,363.8,132,363.8 C129.791,363.8,128,362.009,128,359.8 C128,357.591,129.791,355.8,132,355.8 C134.209,355.8,136,357.591,136,359.8 Z"/><path stroke="#000100" d="M232,359.8 C232,362.009,230.209,363.8,228,363.8 C225.791,363.8,224,362.009,224,359.8 C224,357.591,225.791,355.8,228,355.8 C230.209,355.8,232,357.591,232,359.8 Z"/><g><path fill="none" stroke="#0049fd" stroke-width="0.917393" d="M70,358.499 C70,358.499,90.228,356.208,99.5581,348.452 C109.638,340.073,108.634,326.211,118.278,317.197 C122.62,313.14,132.072,310.5,132.072,310.5"/><path fill="none" stroke="#0049fd" stroke-width="0.917393" d="M193,358.501 C193,358.501,172.772,356.211,163.442,348.455 C153.362,340.076,154.366,326.213,144.722,317.2 C140.38,313.143,130.928,310.503,130.928,310.503"/></g><g><path fill="none" stroke="#d20000" stroke-width="1.1261" d="M157,358.498 C157,358.498,180.188,355.469,190.884,345.208 C202.439,334.123,201.288,315.784,212.343,303.86 C217.32,298.493,228.156,295,228.156,295"/><path fill="none" stroke="#d20000" stroke-width="1.1261" d="M298,358.502 C298,358.502,274.812,355.472,264.116,345.211 C252.561,334.126,253.712,315.787,242.657,303.864 C237.68,298.496,226.844,295.003,226.844,295.003"/></g><path fill="none" stroke="#000100" stroke-width="2" d="M184,387 L184,341.5"/><g><path fill="none" intaglio:arrow-end="7" stroke="#000100" d="M184.5,384 L213,384"/><path fill="none" intaglio:omit="yes" stroke="#000100" d="M205,380 L213,384 L205,388"/></g><g><path fill="none" intaglio:arrow-end="7" stroke="#000100" d="M182.441,384 L153.941,384"/><path fill="none" intaglio:omit="yes" stroke="#000100" d="M161.941,388 L153.941,384 L161.941,380"/></g><image xlink:href="80.pdf" width="14" height="13" transform="matrix(1,0,0,1,315.5,335.5)"/><image xlink:href="83.pdf" width="45" height="14" transform="matrix(1,0,0,1,201,391.5)"/><image xlink:href="86.pdf" width="46" height="14" transform="matrix(1,0,0,1,112.5,391)"/><image xlink:href="88.pdf" width="13" height="14" transform="matrix(1,0,0,1,175.5,319.5)"/></g><g><image xlink:href="61.pdf" width="22" height="14" transform="matrix(1,0,0,1,218,473)"/><g><path fill="none" intaglio:arrow-end="1" stroke="#000100" d="M247,480 L297.5,480" intaglio:d="M247,480 L307,480"/><path fill="#000100" intaglio:omit="yes" d="M297,476 L307,480 L297,484"/></g><path fill="#fffffe" stroke="#000100" d="M331,480 C331,486.627,325.627,492,319,492 C312.373,492,307,486.627,307,480 C307,473.373,312.373,468,319,468 C325.627,468,331,473.373,331,480 Z"/><image xlink:href="66.pdf" width="14" height="15" transform="matrix(1,0,0,1,312,473)"/><g><path fill="none" intaglio:arrow-end="1" stroke="#000100" d="M319,444 L319,458.5" intaglio:d="M319,444 L319,468"/><path fill="#000100" intaglio:omit="yes" d="M323,458 L319,468 L315,458"/></g><g><path fill="none" intaglio:arrow-end="1" stroke="#000100" d="M331,480 L369.5,480" intaglio:d="M331,480 L379,480"/><path fill="#000100" intaglio:omit="yes" d="M369,476 L379,480 L369,484"/></g><path fill="#fffffe" stroke="#000100" d="M379,456 L463,456 L463,504 L379,504 L379,456 Z"/><image xlink:href="69.pdf" width="18" height="14" transform="matrix(1,0,0,1,307,420)"/><image xlink:href="71.pdf" width="17" height="14" transform="matrix(1,0,0,1,343,488)"/><image xlink:href="74.pdf" width="74" height="17" transform="matrix(1,0,0,1,383,472)"/><g><path fill="none" intaglio:arrow-end="1" stroke="#000100" d="M463,480 L489.5,480" intaglio:d="M463,480 L499,480"/><path fill="#000100" intaglio:omit="yes" d="M489,476 L499,480 L489,484"/></g><image xlink:href="78.pdf" width="20" height="14" transform="matrix(1,0,0,1,511,472)"/></g></svg>
