<?xml version="1.0" encoding="UTF-8" standalone="no"?>
<!DOCTYPE svg PUBLIC "-//W3C//DTD SVG 1.1//EN" "http://www.w3.org/Graphics/SVG/1.1/DTD/svg11.dtd">
<!--Generated by Intaglio, www.PurgatoryDesign.com-->
<svg version="1.1" viewBox="0,0,734,576" width="734" height="576" xmlns="http://www.w3.org/2000/svg" xmlns:xlink="http://www.w3.org/1999/xlink" xmlns:intaglio="http://purgatorydesign.com/namespaces/intaglio" intaglio:grid="12,12,1,1,0.5,#9999bf,1,0,0,0" intaglio:guides="0.8,#f0f,0,0"><g><path fill="none" intaglio:arrow-end="1" stroke="#000100" d="M32.75,144.55 L297.25,144.55" intaglio:d="M32.75,144.55 L306.75,144.55"/><path fill="#000100" intaglio:omit="yes" d="M296.75,140.55 L306.75,144.55 L296.75,148.55"/></g><path fill="none" stroke="#000100" d="M112.25,70 L112.25,156.55"/><path fill="none" stroke="#000100" d="M208.25,68.75 L208.25,156.55"/><path stroke="#000100" d="M116.25,144.55 C116.25,146.759,114.459,148.55,112.25,148.55 C110.041,148.55,108.25,146.759,108.25,144.55 C108.25,142.341,110.041,140.55,112.25,140.55 C114.459,140.55,116.25,142.341,116.25,144.55 Z"/><path stroke="#000100" d="M212.25,144.55 C212.25,146.759,210.459,148.55,208.25,148.55 C206.041,148.55,204.25,146.759,204.25,144.55 C204.25,142.341,206.041,140.55,208.25,140.55 C210.459,140.55,212.25,142.341,212.25,144.55 Z"/><g><path fill="none" stroke="#0049fd" stroke-width="1.16982" d="M33.25,143.248 C33.25,143.248,59.0439,140.328,70.9412,130.437 C83.7946,119.752,82.5143,102.076,94.8124,90.5825 C100.348,85.409,112.402,82.0422,112.402,82.0422"/><path fill="none" stroke="#0049fd" stroke-width="1.16982" d="M190.094,143.251 C190.094,143.251,164.3,140.331,152.403,130.441 C139.55,119.756,140.83,102.079,128.532,90.5858 C122.996,85.4123,110.943,82.0455,110.943,82.0455"/></g><g><path fill="none" stroke="#d20000" stroke-width="1.1261" d="M137.25,143.248 C137.25,143.248,160.438,140.219,171.134,129.958 C182.689,118.873,181.538,100.534,192.593,88.6102 C197.57,83.2429,208.406,79.75,208.406,79.75"/><path fill="none" stroke="#d20000" stroke-width="1.1261" d="M278.25,143.252 C278.25,143.252,255.062,140.222,244.366,129.961 C232.811,118.876,233.962,100.537,222.907,88.6136 C217.93,83.2463,207.094,79.7534,207.094,79.7534"/></g><path fill="none" stroke="#000100" stroke-width="2" d="M164.25,171.75 L164.25,126.25"/><g><path fill="none" intaglio:arrow-end="7" stroke="#000100" d="M164.75,168.75 L193.25,168.75"/><path fill="none" intaglio:omit="yes" stroke="#000100" d="M185.25,164.75 L193.25,168.75 L185.25,172.75"/></g><g><path fill="none" intaglio:arrow-end="7" stroke="#000100" d="M162.691,168.75 L134.191,168.75"/><path fill="none" intaglio:omit="yes" stroke="#000100" d="M142.191,172.75 L134.191,168.75 L142.191,164.75"/></g><image xlink:href="10.pdf" width="14" height="13" transform="matrix(1,0,0,1,295.75,120.25)"/><image xlink:href="9.pdf" width="45" height="14" transform="matrix(1,0,0,1,181.25,176.25)"/><image xlink:href="8.pdf" width="46" height="14" transform="matrix(1,0,0,1,92.75,175.75)"/><image xlink:href="7.pdf" width="13" height="14" transform="matrix(1,0,0,1,155.75,104.25)"/><g><path fill="none" intaglio:arrow-end="1" stroke="#000100" d="M391.75,130.25 L442.25,130.25" intaglio:d="M391.75,130.25 L451.75,130.25"/><path fill="#000100" intaglio:omit="yes" d="M441.75,126.25 L451.75,130.25 L441.75,134.25"/></g><path fill="#fffffe" stroke="#000100" d="M475.75,130.25 C475.75,136.877,470.377,142.25,463.75,142.25 C457.123,142.25,451.75,136.877,451.75,130.25 C451.75,123.623,457.123,118.25,463.75,118.25 C470.377,118.25,475.75,123.623,475.75,130.25 Z"/><image xlink:href="5.pdf" width="14" height="15" transform="matrix(1,0,0,1,456.75,123.25)"/><g><path fill="none" intaglio:arrow-end="1" stroke="#000100" d="M463.75,94.25 L463.75,108.75" intaglio:d="M463.75,94.25 L463.75,118.25"/><path fill="#000100" intaglio:omit="yes" d="M467.75,108.25 L463.75,118.25 L459.75,108.25"/></g><g><path fill="none" intaglio:arrow-end="1" stroke="#000100" d="M475.75,130.25 L514.25,130.25" intaglio:d="M475.75,130.25 L523.75,130.25"/><path fill="#000100" intaglio:omit="yes" d="M513.75,126.25 L523.75,130.25 L513.75,134.25"/></g><path fill="#fffffe" stroke="#000100" d="M523.75,106.25 L607.75,106.25 L607.75,154.25 L523.75,154.25 L523.75,106.25 Z"/><image xlink:href="4.pdf" width="18" height="14" transform="matrix(1,0,0,1,451.75,70.25)"/><image xlink:href="3.pdf" width="17" height="14" transform="matrix(1,0,0,1,487.75,138.25)"/><image xlink:href="2.pdf" width="74" height="17" transform="matrix(1,0,0,1,527.75,122.25)"/><g><path fill="none" intaglio:arrow-end="1" stroke="#000100" d="M607.75,130.25 L634.25,130.25" intaglio:d="M607.75,130.25 L643.75,130.25"/><path fill="#000100" intaglio:omit="yes" d="M633.75,126.25 L643.75,130.25 L633.75,134.25"/></g><image xlink:href="1.pdf" width="20" height="14" transform="matrix(1,0,0,1,655.75,122.25)"/><image xlink:href="16.pdf" width="49" height="14" transform="matrix(1,0,0,1,86,45.75)"/><image xlink:href="20.pdf" width="48" height="13" transform="matrix(1,0,0,1,186.25,45.5)"/><path fill="none" stroke="#000100" d="M407.5,360.25 C407.5,389.659,383.659,413.5,354.25,413.5 C324.841,413.5,301,389.659,301,360.25 C301,330.841,324.841,307,354.25,307 C383.659,307,407.5,330.841,407.5,360.25 Z"/><path stroke="#000100" d="M304.25,359.55 C304.25,361.759,302.459,363.55,300.25,363.55 C298.041,363.55,296.25,361.759,296.25,359.55 C296.25,357.341,298.041,355.55,300.25,355.55 C302.459,355.55,304.25,357.341,304.25,359.55 Z"/><path fill="#0049fd" stroke="#000100" d="M412.25,359.55 C412.25,361.759,410.459,363.55,408.25,363.55 C406.041,363.55,404.25,361.759,404.25,359.55 C404.25,357.341,406.041,355.55,408.25,355.55 C410.459,355.55,412.25,357.341,412.25,359.55 Z"/><path stroke="#000100" d="M358.25,413.55 C358.25,415.759,356.459,417.55,354.25,417.55 C352.041,417.55,350.25,415.759,350.25,413.55 C350.25,411.341,352.041,409.55,354.25,409.55 C356.459,409.55,358.25,411.341,358.25,413.55 Z"/><path stroke="#000100" d="M358.25,307.55 C358.25,309.759,356.459,311.55,354.25,311.55 C352.041,311.55,350.25,309.759,350.25,307.55 C350.25,305.341,352.041,303.55,354.25,303.55 C356.459,303.55,358.25,305.341,358.25,307.55 Z"/><path stroke="#000100" d="M317.48,394.491 C319.043,396.053,319.043,398.586,317.48,400.148 C315.918,401.71,313.386,401.71,311.824,400.148 C310.261,398.586,310.261,396.053,311.824,394.491 C313.386,392.929,315.918,392.929,317.48,394.491 Z"/><path fill="#009c4d" stroke="#000100" d="M393.848,318.124 C395.41,319.686,395.41,322.218,393.848,323.78 C392.286,325.343,389.753,325.343,388.191,323.78 C386.629,322.218,386.629,319.686,388.191,318.124 C389.753,316.561,392.286,316.561,393.848,318.124 Z"/><path stroke="#000100" d="M394.555,395.198 C396.117,396.76,396.117,399.293,394.555,400.855 C392.993,402.417,390.46,402.417,388.898,400.855 C387.336,399.293,387.336,396.76,388.898,395.198 C390.46,393.636,392.993,393.636,394.555,395.198 Z"/><path stroke="#000100" d="M319.602,320.245 C321.164,321.807,321.164,324.34,319.602,325.902 C318.04,327.464,315.507,327.464,313.945,325.902 C312.383,324.34,312.383,321.807,313.945,320.245 C315.507,318.683,318.04,318.683,319.602,320.245 Z"/><image xlink:href="23.pdf" width="23" height="12" transform="matrix(1,0,0,1,399.75,309.952)"/><image xlink:href="25.pdf" width="24" height="12" transform="matrix(1,0,0,1,413.5,366)"/><image xlink:href="27.pdf" width="24" height="12" transform="matrix(1,0,0,1,360.5,290.5)"/><image xlink:href="29.pdf" width="23" height="12" transform="matrix(1,0,0,1,290,306)"/><image xlink:href="30.pdf" width="23" height="12" transform="matrix(1,0,0,1,270.5,343.5)"/><image xlink:href="32.pdf" width="23" height="12" transform="matrix(1,0,0,1,283,397)"/><image xlink:href="33.pdf" width="23" height="12" transform="matrix(1,0,0,1,326.5,420)"/><image xlink:href="36.pdf" width="23" height="12" transform="matrix(1,0,0,1,399,401)"/><g><path fill="none" intaglio:arrow-end="1" stroke="#000100" d="M282,360.25 L441.5,360.25" intaglio:d="M282,360.25 L451,360.25"/><path fill="#000100" intaglio:omit="yes" d="M441,356.25 L451,360.25 L441,364.25"/></g><g><path fill="none" intaglio:arrow-end="1" stroke="#000100" d="M355,446 L355,288" intaglio:d="M355,446 L355,278.5"/><path fill="#000100" intaglio:omit="yes" d="M351,288.5 L355,278.5 L359,288.5"/></g><image xlink:href="39.pdf" width="8" height="8" transform="matrix(1,0,0,1,459.5,356.25)"/><image xlink:href="42.pdf" width="7" height="13" transform="matrix(1,0,0,1,352.5,259)"/><path fill="#ff0004" stroke="#000100" d="M416.25,332.55 C416.25,334.759,414.459,336.55,412.25,336.55 C410.041,336.55,408.25,334.759,408.25,332.55 C408.25,330.341,410.041,328.55,412.25,328.55 C414.459,328.55,416.25,330.341,416.25,332.55 Z"/><g><path fill="none" intaglio:arrow-end="6" stroke="#000100" d="M447,334.073 L417.259,351.811" intaglio:d="M447,334.073 L412.75,354.5"/><path fill="#000100" intaglio:omit="yes" d="M423.9,353.672 L412.75,354.5 L418.777,345.084 L417.474,351.683"/></g><image xlink:href="46.pdf" width="86" height="13" transform="matrix(1,0,0,1,452,326.05)"/><image xlink:href="50.pdf" width="62" height="13" transform="matrix(1,0,0,1,452,298.55)"/><image xlink:href="55.pdf" width="40" height="13" transform="matrix(1,0,0,1,427.5,259)"/><g><path fill="none" intaglio:arrow-end="6" stroke="#000100" d="M452,312.073 L422.259,329.811" intaglio:d="M452,312.073 L417.75,332.5"/><path fill="#000100" intaglio:omit="yes" d="M428.9,331.672 L417.75,332.5 L423.777,323.084 L422.474,329.683"/></g><g><path fill="#fffffe" intaglio:arrow-start="6" intaglio:stroke="#000100" d="M389.02,315.952 L391.848,313.124 L395.5,284.5 L420,268"/><path fill="none" intaglio:omit="yes" stroke="#000100" d="M392.006,311.884 L395.5,284.5 L420,268"/><path fill="#000100" intaglio:omit="yes" d="M397.567,307.805 C394.997,310.72,393.896,316.065,389.02,315.952 C392.862,312.409,387.263,310.056,387.648,306.539 C389.111,308.238,390.574,309.937,392.038,311.636"/></g><image xlink:href="59.pdf" width="21" height="13" transform="matrix(1,0,0,1,85.25,148.75)"/><image xlink:href="64.pdf" width="21" height="15" transform="matrix(1,0,0,1,213.25,144.55)"/><image xlink:href="69.pdf" width="56" height="14" transform="matrix(1,0,0,1,360.5,112.251)"/></svg>
