<?xml version="1.0" encoding="UTF-8" standalone="no"?>
<!DOCTYPE svg PUBLIC "-//W3C//DTD SVG 1.1//EN" "http://www.w3.org/Graphics/SVG/1.1/DTD/svg11.dtd">
<!--Generated by Intaglio, www.PurgatoryDesign.com-->
<svg version="1.1" viewBox="0,0,734,576" width="734" height="576" xmlns="http://www.w3.org/2000/svg" xmlns:xlink="http://www.w3.org/1999/xlink" xmlns:intaglio="http://purgatorydesign.com/namespaces/intaglio" intaglio:grid="12,12,1,1,0.5,#9999bf,1,0,0,1" intaglio:guides="0.8,#f0f,0,0"><path fill="none" stroke="#000100" d="M416,384 L416,492"/><g><path fill="none" intaglio:arrow-start="9" intaglio:arrow-end="1" stroke="#000100" d="M111,95 L446.5,95.4862" intaglio:d="M111,95 L456,95.5"/><path fill="none" intaglio:omit="yes" stroke="#000100" d="M111.007,90 L110.993,100"/><path fill="#000100" intaglio:omit="yes" d="M446.006,91.4855 L456,95.5 L445.994,99.4855"/></g><path fill="#fffffe" stroke="#000100" d="M168,156 L312,156 L312,300 L168,300 L168,156 Z"/><path fill="none" stroke="#007efd" d="M207.5,183 C225.512,189.081,241.877,199.238,255.319,212.681"/><g><path fill="none" intaglio:arrow-end="1" stroke="#007efd" d="M168,300 L248.602,219.398" intaglio:d="M168,300 L255.319,212.681"/><path fill="#007efd" intaglio:omit="yes" d="M245.42,216.924 L255.319,212.681 L251.076,222.58"/></g><path fill="none" stroke="#00cf68" d="M219,215 C229.004,204.996,235.633,192.115,237.959,178.16"/><g><path fill="none" intaglio:arrow-end="1" stroke="#00cf68" d="M168,156 L228.902,175.291" intaglio:d="M168,156 L237.959,178.16"/><path fill="#00cf68" intaglio:omit="yes" d="M229.633,171.327 L237.959,178.16 L227.218,178.953"/></g><image xlink:href="2.pdf" width="17" height="18" transform="matrix(1,0,0,1,228,240)"/><image xlink:href="1.pdf" width="17" height="18" transform="matrix(1,0,0,1,180,168)"/><image xlink:href="6.pdf" width="41" height="21" transform="matrix(1,0,0,1,120,288)"/><image xlink:href="5.pdf" width="41" height="21" transform="matrix(1,0,0,1,120,144)"/><path fill="#000" stroke="#000100" d="M170.5,298.25 C170.5,300.045,169.045,301.5,167.25,301.5 C165.455,301.5,164,300.045,164,298.25 C164,296.455,165.455,295,167.25,295 C169.045,295,170.5,296.455,170.5,298.25 Z"/><path fill="#000" stroke="#000100" d="M171.5,156.25 C171.5,158.045,170.045,159.5,168.25,159.5 C166.455,159.5,165,158.045,165,156.25 C165,154.455,166.455,153,168.25,153 C170.045,153,171.5,154.455,171.5,156.25 Z"/><image xlink:href="8.pdf" width="127" height="21" transform="matrix(1,0,0,1,330,180)"/><g><path fill="none" intaglio:arrow-end="6" stroke="#000100" stroke-dasharray="2" d="M327,190.5 L244.739,195.906" intaglio:d="M327,190.5 L239.5,196.25"/><path fill="#000100" intaglio:omit="yes" d="M249.806,200.584 L239.5,196.25 L249.151,190.605 L244.988,195.889"/></g><path fill="#d20000" stroke="#d20000" d="M236.5,196.25 C236.5,198.597,234.597,200.5,232.25,200.5 C229.903,200.5,228,198.597,228,196.25 C228,193.903,229.903,192,232.25,192 C234.597,192,236.5,193.903,236.5,196.25 Z"/><g><path fill="none" intaglio:arrow-end="1" stroke="#000100" d="M168,480 L494.5,480" intaglio:d="M168,480 L504,480"/><path fill="#000100" intaglio:omit="yes" d="M494,476 L504,480 L494,484"/></g><path fill="none" stroke="#007efd" stroke-width="2" d="M204,348 C204,348,250.884,476.665,312,480 C378.798,483.645,432,348,432,348"/><path fill="#000" stroke="#000" d="M395,424 C395,426.209,393.209,428,391,428 C388.791,428,387,426.209,387,424 C387,421.791,388.791,420,391,420 C393.209,420,395,421.791,395,424 Z"/><g><path fill="none" intaglio:arrow-start="9" intaglio:arrow-end="8" stroke="#000100" d="M380,415 L404,379"/><path fill="none" intaglio:omit="yes" stroke="#000100" d="M375.84,412.226 L384.16,417.774"/><path fill="none" intaglio:omit="yes" stroke="#000100" d="M400.256,376.504 L407.744,381.496 M396.234,383.438 L403.958,378.972 L404.042,379.028 L402.891,387.875"/></g><path fill="#ff0004" stroke="#ff0004" d="M420,386 C420,388.209,418.209,390,416,390 C413.791,390,412,388.209,412,386 C412,383.791,413.791,382,416,382 C418.209,382,420,383.791,420,386 Z"/><path fill="none" stroke="#000100" d="M392,430 L392,490"/><image xlink:href="17.pdf" width="44" height="21" transform="matrix(1,0,0,1,360,498)"/><image xlink:href="16.pdf" width="41" height="21" transform="matrix(1,0,0,1,348,371)"/><image xlink:href="19.pdf" width="235" height="48" transform="matrix(1,0,0,1,408,485)"/></svg>
